<svg xmlns="http://www.w3.org/2000/svg" fill="none" viewBox="0 0 24 24" stroke-width="1.5" stroke="currentColor"><path stroke-linecap="round" stroke-linejoin="round" d="M9.594 3.94c.09-.542.56-1.007 1.11-.95.27.025.52.12.73.28a1.2 1.2 0 0 1 .73-.28c.31-.055.65-.035 1.005.045.32.08.61.25.86.48.25.23.45.52.57.84.07.19.1.4.1.61.01.2-.01.4-.04.6.03.2.07.4.12.6.05.2.1.4.17.6.07.2.15.4.24.6.09.2.2.4.3.6.14.3.3.6.48.9.18.3.33.6.46.9.13.3.24.6.33.9.09.3.16.6.2.9.04.3.06.6.07.9.01.3-.01.6-.04.9-.03.3-.08.6-.14.9-.06.3-.13.6-.21.9-.08.3-.18.6-.29.8-.11.3-.24.5-.38.8-.14.3-.3.5-.47.8-.17.3-.35.5-.55.8-.2.2-.42.4-.65.6-.23.2-.48.3-.74.4-.26.1-.53.1-.8.1-.27,0-.54-.02-.8-.07-.26-.05-.52-.12-.77-.23-.25-.1-.49-.2-.73-.3-.24-.1-.48-.2-.72-.3-.24-.1-.48-.3-.7-.4-.2-.1-.4-.3-.6-.4-.2-.1-.4-.3-.5-.5-.1-.2-.3-.4-.4-.6-.1-.2-.2-.4-.3-.6-.1-.2-.2-.4-.2-.6-.05-.2-.08-.4-.1-.6-.02-.2-.04-.4-.05-.6-.01-.3.01-.6.04-.9.03-.3.08.6.14-.9.06-.3.13.6-.21.9.08-.3.18-.5.29-.8.11-.2.24-.5.38-.7.14-.3.3-.5.47-.8.17-.3.35-.5.55-.8.2-.2.42-.4-.65-.6.23-.2.48-.3.74-.4.26-.1.53-.1-.8-.1.27.01.54.03.8.07.26.05.52.12.77.23.25.1.49.2.73.3.24.1.48.2.72.3.24.1.48.3.7.4.2.1.4.3.6.4.2.1.4.3.5.5s.3.4.4.6c.1.2.2.4.3.6.1.2.2.4.2.6.05.2.08.4.1.6.02.2.04.4.05.6.01.3-.01.6-.04-.9-.03-.3-.08-.6-.14-.9-.06-.3-.13-.6-.21-.9-.08-.3-.18-.5-.29-.8-.11-.2-.24-.5-.38-.7-.14-.3-.3-.5-.47-.8-.17-.3-.35-.5-.55-.8-.2-.2-.42-.4-.65-.6-.23-.2-.48-.3-.74-.4-.26-.1-.53-.1-.8-.1Z" /></svg>